<svg width="45" height="28" viewBox="0 0 45 28" fill="none" xmlns="http://www.w3.org/2000/svg">
<path d="M22.2043 27.9874C19.7276 27.9874 17.2508 27.9749 14.774 28C14.3653 28 14.1424 27.8745 13.9567 27.5107C13.4737 26.595 12.9164 25.7168 12.4334 24.7885C12.322 24.5627 12.3096 24.1613 12.4334 23.948C16.8793 16.0824 21.3498 8.24192 25.8328 0.401424C25.9443 0.213252 26.2291 0.0376252 26.4396 0.0376252C27.5542 -9.18657e-06 28.6687 -9.18657e-06 29.7833 0.0376252C29.9938 0.05017 30.291 0.213252 30.3901 0.401424C32.9288 4.81719 35.4551 9.25805 37.9567 13.6864C38.0557 13.8494 38.0433 14.1756 37.9443 14.3512C35.4303 18.7921 32.9164 23.2204 30.3653 27.6362C30.2539 27.8244 29.9195 27.9749 29.6842 27.9749C27.195 28 24.7059 27.9874 22.2043 27.9874Z" fill="white"/>
<path d="M10.2043 20.9122C9.47367 19.6326 8.80494 18.4534 8.12383 17.2616C7.59132 16.3208 7.07119 15.3674 6.51392 14.439C6.32816 14.138 6.31578 13.8996 6.50154 13.586C9.01547 9.19532 11.5046 4.7921 14.0186 0.41396C14.1176 0.238332 14.3777 0.0376154 14.5635 0.0376154C17.0402 0.0125258 19.5046 0.0250706 22.0929 0.0250706C18.1176 6.99998 14.1796 13.9122 10.2043 20.9122Z" fill="white"/>
<path d="M42.13 15.957C40.904 15.957 40.0991 15.129 40.0991 13.862C40.0991 12.6702 40.9412 11.8047 42.1053 11.8047C43.2817 11.7921 44.1981 12.7079 44.1981 13.8871C44.2105 15.0663 43.3189 15.957 42.13 15.957Z" fill="white"/>
<path d="M4.11145 13.9247C4.11145 15.1541 3.26935 15.9695 2.01858 15.957C0.866873 15.9444 0 15.0538 0 13.8871C0 12.6953 0.904025 11.8047 2.0805 11.8047C3.26935 11.8047 4.11145 12.6828 4.11145 13.9247Z" fill="white"/>
</svg>
