<svg width="17" height="17" viewBox="0 0 17 17" fill="none" xmlns="http://www.w3.org/2000/svg">
<path d="M15.8837 15.283L12.2174 11.6181C13.2438 10.4522 13.8094 8.95184 13.8083 7.39854C13.8083 3.86608 10.9332 0.992371 7.39999 0.992371C3.86612 0.991662 0.991699 3.86608 0.991699 7.39783C0.991699 10.9296 3.86682 13.804 7.39999 13.804C9.01287 13.804 10.4883 13.2047 11.616 12.218L15.283 15.8837C15.3223 15.9235 15.369 15.9551 15.4206 15.9767C15.4721 15.9983 15.5275 16.0094 15.5834 16.0094C15.6393 16.0094 15.6946 15.9983 15.7462 15.9767C15.7977 15.9551 15.8445 15.9235 15.8837 15.8837C15.9233 15.8443 15.9547 15.7975 15.9761 15.746C15.9976 15.6944 16.0086 15.6391 16.0086 15.5833C16.0086 15.5275 15.9976 15.4722 15.9761 15.4207C15.9547 15.3692 15.9233 15.3224 15.8837 15.283ZM7.39999 12.954C4.33503 12.954 1.8417 10.4614 1.8417 7.39783C1.8417 4.33429 4.33503 1.84166 7.39999 1.84166C10.465 1.84166 12.9583 4.33429 12.9583 7.39783C12.9583 10.4614 10.465 12.954 7.39999 12.954Z" fill="#111111"/>
</svg>
